<svg width="76" height="28" viewBox="0 0 76 28" fill="none" xmlns="http://www.w3.org/2000/svg">
<path d="M10.3062 0.206055C13.3174 0.206055 15.7815 0.773166 17.7003 1.90571C19.6175 3.03492 21.0394 4.63922 21.9629 6.71696C22.8863 8.79134 23.348 11.2438 23.348 14.071C23.348 18.8404 22.3192 22.3384 20.2632 24.5634C18.2106 26.7883 15.0639 27.9025 10.8214 27.9025H9.14182C7.91057 27.9025 6.75627 27.7703 5.68227 27.5077C4.61162 27.2434 3.66978 26.7816 2.85843 26.1225C2.0454 25.4617 1.41305 24.5216 0.958023 23.2987C0.502996 22.0775 0.275483 20.5066 0.275483 18.5878C0.275483 16.7861 0.524744 15.2286 1.02494 13.9171C1.52848 12.6055 2.12236 11.5583 2.8049 10.7721C3.49078 9.98245 4.10975 9.49731 4.65846 9.31329L4.45103 8.5906H3.8354C2.67107 8.5906 1.75098 8.21587 1.07847 7.46641C0.404295 6.71361 0.0446231 5.69649 0.00112807 4.41506C-0.0222927 3.14031 0.318978 2.11985 1.02494 1.35701C1.73425 0.59082 2.67107 0.206055 3.8354 0.206055H10.3062ZM7.52915 18.0793C7.52915 18.6246 7.6496 18.9993 7.89049 19.2034C8.13139 19.4092 8.5011 19.5112 9.0013 19.5112H11.0556C12.3571 19.5112 13.3609 19.2335 14.0668 18.6748C14.7761 18.1177 15.273 17.4001 15.559 16.5201C15.8434 15.6418 15.9873 14.7117 15.9873 13.7297C15.9873 12.7494 15.8434 11.8026 15.559 10.8925C15.273 9.9791 14.7761 9.22462 14.0668 8.63075C13.3609 8.03854 12.3571 7.74077 11.0556 7.74077H9.0013C8.5011 7.74077 8.13139 7.85118 7.89049 8.06865C7.6496 8.28279 7.52915 8.6642 7.52915 9.21291V18.0793Z" fill="white"/>
<path d="M37.7637 28.0042C35.0686 28.0042 32.7851 27.4104 30.9115 26.2243C29.0412 25.0365 27.6209 23.3971 26.649 21.2993C25.6804 19.1981 25.1969 16.7791 25.1969 14.0389C25.1969 11.3221 25.6804 8.90983 26.649 6.79864C27.6209 4.68912 29.0412 3.02961 30.9115 1.82011C32.7851 0.60726 35.0686 0 37.7637 0C40.4805 0 42.7656 0.60726 44.6225 1.82011C46.4828 3.02961 47.8964 4.68912 48.865 6.79864C49.837 8.90983 50.3238 11.3221 50.3238 14.0389C50.3238 16.7791 49.837 19.1981 48.865 21.2993C47.8964 23.3971 46.4828 25.0365 44.6225 26.2243C42.7656 27.4104 40.4805 28.0042 37.7637 28.0042ZM29.9881 13.4233C29.9881 14.0172 30.0834 14.5876 30.2758 15.1363C30.4715 15.6817 30.8446 16.1652 31.3933 16.5884C31.942 17.0133 32.7283 17.3446 33.7554 17.5855C34.7809 17.823 36.1175 17.9401 37.7637 17.9401C39.4048 17.9401 40.7381 17.823 41.7652 17.5855C42.7907 17.3446 43.5787 17.0133 44.1274 16.5884C44.6761 16.1652 45.0458 15.6817 45.2382 15.1363C45.4339 14.5876 45.5326 14.0172 45.5326 13.4233C45.5326 12.8311 45.4339 12.2707 45.2382 11.7437C45.0458 11.2184 44.6761 10.7567 44.1274 10.3586C43.5787 9.95706 42.7907 9.64256 41.7652 9.41505C40.7381 9.18753 39.4048 9.07378 37.7637 9.07378C36.1175 9.07378 34.7809 9.18753 33.7554 9.41505C32.7283 9.64256 31.942 9.95706 31.3933 10.3586C30.8446 10.7567 30.4715 11.2184 30.2758 11.7437C30.0834 12.2707 29.9881 12.8311 29.9881 13.4233Z" fill="white"/>
<path d="M56.213 27.903C54.9366 27.903 53.9663 27.5082 53.3022 26.7186C52.6414 25.9323 52.3118 24.8784 52.3118 23.5535V5.72042C52.3118 4.39549 52.5561 3.32986 53.0479 2.52185C53.5381 1.7105 54.1871 1.10993 54.9952 0.721815C55.8065 0.333704 56.6814 0.139648 57.6182 0.139648C59.0101 0.139648 60.1895 0.511031 61.1581 1.25045C62.13 1.99154 62.8795 3.27632 63.4065 5.1048L67.5151 19.1705H68.1307V4.55609C68.1307 3.20941 68.472 2.14712 69.1545 1.3709C69.8404 0.594675 70.8107 0.206564 72.0654 0.206564C73.3903 0.206564 74.3756 0.594675 75.023 1.3709C75.6738 2.14712 76 3.20941 76 4.55609V21.74C76 23.8864 75.5266 25.4606 74.5814 26.4643C73.6345 27.468 72.3163 27.9699 70.6267 27.9699C68.8902 27.9699 67.5502 27.5115 66.605 26.5981C65.6582 25.6881 64.9221 24.3431 64.3968 22.5631L61.6934 13.3154C61.6215 13.0661 61.5228 12.8336 61.399 12.6194C61.2735 12.402 61.0862 12.2915 60.8369 12.2915C60.5642 12.2915 60.3768 12.402 60.2748 12.6194C60.1711 12.8336 60.1209 13.0661 60.1209 13.3154V23.5535C60.1209 24.8784 59.788 25.9323 59.1239 26.7186C58.4631 27.5082 57.4928 27.903 56.213 27.903Z" fill="white"/>
</svg>
