<svg width="90" height="94" viewBox="0 0 90 94" fill="none" xmlns="http://www.w3.org/2000/svg">
<path d="M44.3282 23.0674C34.5365 23.0674 26.5938 31.4059 26.5938 41.6872C26.5938 51.9736 34.5365 60.3122 44.3282 60.3122C54.1198 60.3122 62.0573 51.9736 62.0573 41.6872C62.0573 31.4059 54.1198 23.0674 44.3282 23.0674Z" fill="white"/>
<mask id="mask0_285_2" style="mask-type:luminance" maskUnits="userSpaceOnUse" x="0" y="0" width="90" height="94">
<path d="M0 0H89.0625V93.0208H0V0Z" fill="white"/>
</mask>
<g mask="url(#mask0_285_2)">
<path d="M73.7708 78.7341C69.8438 69.1507 61.6042 63.1559 44.2969 63.1559C27.0208 63.1559 18.776 69.1351 14.8438 78.6976C6.83854 70.583 1.85938 59.2028 1.85938 46.5934C1.85938 21.958 20.8698 1.98926 44.3281 1.98926C67.7812 1.98926 86.7917 21.958 86.7917 46.5934C86.7917 59.2184 81.7969 70.6195 73.7708 78.7341ZM44.3281 0.0361328C19.8438 0.0361328 0 20.8851 0 46.5934C0 60.0413 5.43229 72.1611 14.1146 80.6611C22.026 88.4111 32.651 93.1507 44.3281 93.1507C55.9844 93.1507 66.5885 88.4268 74.5 80.6976C83.2031 72.1976 88.651 60.0622 88.651 46.5934C88.651 20.8851 68.8073 0.0361328 44.3281 0.0361328Z" fill="white"/>
</g>
</svg>
